<?xml version="1.0" standalone="no"?>
<!DOCTYPE svg PUBLIC "-//W3C//DTD SVG 20010904//EN"
 "http://www.w3.org/TR/2001/REC-SVG-20010904/DTD/svg10.dtd">
<svg version="1.0" xmlns="http://www.w3.org/2000/svg"
 width="820.000000pt" height="820.000000pt" viewBox="0 0 820.000000 820.000000"
 preserveAspectRatio="xMidYMid meet">
<metadata>
Created by potrace 1.16, written by Peter Selinger 2001-2019
</metadata>
<g transform="translate(0.000000,820.000000) scale(0.100000,-0.100000)"
fill="#000000" stroke="none">
<path d="M2090 7624 c-298 -64 -524 -291 -584 -586 -61 -294 64 -598 315 -769
95 -64 163 -90 321 -124 l28 -5 2 -757 3 -756 930 -651 930 -652 3 -654 2
-655 -81 -17 c-219 -46 -415 -198 -514 -403 -56 -115 -76 -200 -76 -330 0
-130 20 -215 76 -330 96 -198 287 -351 498 -400 89 -20 255 -20 344 0 211 49
402 202 498 400 56 115 76 200 76 330 0 130 -20 215 -76 330 -97 200 -289 353
-503 401 l-72 16 2 656 3 655 924 647 c508 356 927 654 932 661 5 8 9 352 9
764 l0 750 67 13 c228 43 441 220 534 442 182 435 -80 929 -543 1024 -403 83
-799 -180 -882 -586 -61 -294 64 -598 315 -769 95 -64 163 -90 322 -124 l27
-5 0 -705 c0 -659 -1 -706 -17 -720 -10 -8 -394 -278 -853 -599 l-835 -584 -5
556 -5 557 61 12 c138 26 264 94 375 203 86 85 145 178 186 295 26 74 28 91
28 235 0 144 -2 161 -28 235 -16 44 -47 112 -69 150 -49 83 -170 206 -251 254
-249 147 -535 147 -784 0 -81 -48 -202 -171 -251 -254 -22 -38 -53 -106 -69
-150 -26 -74 -28 -91 -28 -235 0 -144 2 -161 28 -235 41 -117 100 -210 186
-295 113 -110 238 -178 380 -204 l66 -12 3 -558 c2 -448 0 -557 -10 -549 -7 6
-382 268 -833 583 -451 315 -830 582 -842 593 l-23 20 0 706 0 706 67 13 c334
64 593 383 593 732 0 470 -445 833 -900 734z m294 -164 c110 -28 190 -74 271
-155 150 -150 207 -356 155 -559 -28 -110 -74 -190 -155 -271 -150 -150 -356
-207 -559 -155 -110 28 -190 74 -271 155 -150 150 -207 356 -155 559 28 110
74 190 155 271 150 150 356 207 559 155z m3750 0 c110 -28 190 -74 271 -155
150 -150 207 -356 155 -559 -28 -110 -74 -190 -155 -271 -150 -150 -356 -207
-559 -155 -110 28 -190 74 -271 155 -150 150 -207 356 -155 559 28 110 74 190
155 271 150 150 356 207 559 155z"/>
</g>
</svg>
